<svg width="51" height="51" viewBox="0 0 51 51" fill="none" xmlns="http://www.w3.org/2000/svg">
<path d="M29.9927 8.71822C29.9927 10.5 30.7005 12.2088 31.9604 13.4687C33.2203 14.7286 34.9291 15.4364 36.7109 15.4364C38.4927 15.4364 40.2015 14.7286 41.4614 13.4687C42.7213 12.2088 43.4291 10.5 43.4291 8.71822C43.4291 6.93644 42.7213 5.22763 41.4614 3.96772C40.2015 2.70781 38.4927 2 36.7109 2C34.9291 2 33.2203 2.70781 31.9604 3.96772C30.7005 5.22763 29.9927 6.93644 29.9927 8.71822Z" stroke="#5B4435" stroke-width="3" stroke-linejoin="round"/>
<path d="M21.0351 8.71822C21.0351 10.5 20.3273 12.2088 19.0673 13.4687C17.8074 14.7286 16.0986 15.4364 14.3169 15.4364C12.5351 15.4364 10.8263 14.7286 9.56635 13.4687C8.30644 12.2088 7.59863 10.5 7.59863 8.71822C7.59863 6.93644 8.30644 5.22763 9.56635 3.96772C10.8263 2.70781 12.5351 2 14.3169 2C16.0986 2 17.8074 2.70781 19.0673 3.96772C20.3273 5.22763 21.0351 6.93644 21.0351 8.71822Z" stroke="#5B4435" stroke-width="3" stroke-linejoin="round"/>
<path d="M32.2321 17.6757C32.2321 19.4575 31.5243 21.1663 30.2644 22.4262C29.0045 23.6861 27.2957 24.394 25.5139 24.394C23.7321 24.394 22.0233 23.6861 20.7634 22.4262C19.5035 21.1663 18.7957 19.4575 18.7957 17.6757C18.7957 15.894 19.5035 14.1851 20.7634 12.9252C22.0233 11.6653 23.7321 10.9575 25.5139 10.9575C27.2957 10.9575 29.0045 11.6653 30.2644 12.9252C31.5243 14.1851 32.2321 15.894 32.2321 17.6757Z" stroke="#5B4435" stroke-width="3" stroke-linejoin="round"/>
<path d="M19.1752 15.4456C15.1935 15.4646 12.1132 15.5239 8.59402 15.7098C5.85858 15.8542 3.6035 17.8932 3.11195 20.7037C2.67303 23.2208 2.20499 26.5396 2.00681 30.0935C1.89484 32.1011 3.17466 33.8557 5.08935 34.0886C5.76978 34.1714 6.45281 34.2311 7.13728 34.2678L8.042 45.1188C8.20548 47.0783 9.55024 48.7052 11.4269 48.8866C13.4237 49.0785 15.4344 49.0759 17.4307 48.8788C18.5213 48.7713 19.4339 48.1734 20.0385 47.3033" stroke="#5B4435" stroke-width="3" stroke-linecap="round" stroke-linejoin="round"/>
<path d="M30.9893 47.3033C31.5939 48.1722 32.5065 48.7702 33.5982 48.8788C35.5937 49.0759 37.6037 49.0786 39.5998 48.8866C41.4775 48.7052 42.8223 47.0783 42.9858 45.1188L43.8916 34.2689C44.5756 34.2312 45.2582 34.1714 45.9384 34.0897C47.8531 33.8546 49.1329 32.1011 49.021 30.0935C48.8228 26.5396 48.3547 23.2208 47.9158 20.7048C47.4231 17.8932 45.1692 15.8542 42.4337 15.7098C38.9145 15.5239 35.8342 15.4635 31.8525 15.4456" stroke="#5B4435" stroke-width="3" stroke-linecap="round" stroke-linejoin="round"/>
<path d="M30.9512 24.5251C33.1906 24.646 34.9675 26.2696 35.3594 28.4776C35.7211 30.5099 36.1455 33.2744 36.4556 36.4499C36.5003 36.8665 36.4597 37.2877 36.3363 37.6881C36.2129 38.0885 36.0093 38.4595 35.7379 38.7786C35.4664 39.0977 35.1329 39.3582 34.7575 39.5442C34.3821 39.7302 33.9728 39.8378 33.5545 39.8605C33.0416 39.8908 32.4661 39.9199 31.8279 39.9467L31.3834 45.964C31.2736 47.4488 30.1976 48.6838 28.7185 48.8461C27.8003 48.9469 26.6952 49.0275 25.5139 49.0275C24.3326 49.0275 23.2275 48.9469 22.3104 48.8461C20.8302 48.6838 19.7541 47.4488 19.6455 45.964L19.1999 39.9467C18.5616 39.9199 17.9872 39.8908 17.4744 39.8605C17.0563 39.8377 16.6472 39.73 16.272 39.544C15.8969 39.358 15.5635 39.0976 15.2922 38.7786C15.0209 38.4596 14.8173 38.0888 14.6939 37.6886C14.5705 37.2885 14.5299 36.8674 14.5744 36.451C14.8834 33.2744 15.3078 30.5099 15.6683 28.4788C16.0614 26.2696 17.8372 24.646 20.0777 24.5262C21.8883 24.4339 23.701 24.3898 25.5139 24.3941C27.769 24.3941 29.5672 24.4512 30.9512 24.5251Z" stroke="#5B4435" stroke-width="3" stroke-linejoin="round"/>
</svg>
