<svg width="53" height="53" viewBox="0 0 53 53" fill="none" xmlns="http://www.w3.org/2000/svg">
<path d="M12.6238 44.0846C12.8511 45.5514 13.0873 46.8861 13.2844 47.9409C13.5643 49.4245 14.6191 50.6158 16.1117 50.8409C17.2829 51.0189 18.9098 51.1723 21.035 51.1723C23.0561 51.1723 24.7166 51.0335 25.9807 50.8678C27.7543 50.6349 28.9972 49.1591 29.1898 47.381L29.5492 44.0645" stroke="#5B4435" stroke-width="3" stroke-linecap="round" stroke-linejoin="round"/>
<path d="M39.6477 2.5817C39.7442 2.40559 39.8863 2.25868 40.0591 2.15634C40.2318 2.054 40.4289 2 40.6297 2C40.8305 2 41.0276 2.054 41.2004 2.15634C41.3732 2.25868 41.5152 2.40559 41.6117 2.5817L43.8422 6.65965C44.4587 7.78686 45.3854 8.71364 46.5126 9.33015L50.5906 11.5606C50.7667 11.6571 50.9136 11.7991 51.016 11.9719C51.1183 12.1447 51.1723 12.3418 51.1723 12.5426C51.1723 12.7434 51.1183 12.9405 51.016 13.1132C50.9136 13.286 50.7667 13.4281 50.5906 13.5246L46.5126 15.755C45.3854 16.3715 44.4587 17.2983 43.8422 18.4255L41.6117 22.5035C41.5152 22.6796 41.3732 22.8265 41.2004 22.9288C41.0276 23.0311 40.8305 23.0851 40.6297 23.0851C40.4289 23.0851 40.2318 23.0311 40.0591 22.9288C39.8863 22.8265 39.7442 22.6796 39.6477 22.5035L37.4173 18.4255C36.8008 17.2983 35.874 16.3715 34.7468 15.755L30.6689 13.5246C30.4928 13.4281 30.3458 13.286 30.2435 13.1132C30.1412 12.9405 30.0872 12.7434 30.0872 12.5426C30.0872 12.3418 30.1412 12.1447 30.2435 11.9719C30.3458 11.7991 30.4928 11.6571 30.6689 11.5606L34.7468 9.33015C35.874 8.71364 36.8008 7.78686 37.4173 6.65965L39.6477 2.5817Z" stroke="#5B4435" stroke-width="3"/>
<path d="M28.313 5.58609C26.0054 4.6316 23.5322 4.14189 21.0349 4.14503C10.5221 4.14503 2 12.6671 2 23.18C2 29.2633 4.85412 34.6805 9.29598 38.165C9.62314 39.4734 9.98569 40.7727 10.3832 42.0615C10.727 43.179 11.6552 43.9908 12.8186 44.1128C14.3783 44.2752 17.0085 44.4543 21.0349 44.4543C25.0614 44.4543 27.6916 44.2752 29.2513 44.1128C30.4147 43.9908 31.3429 43.179 31.6856 42.0604C32.0069 41.0157 32.4134 39.6195 32.7739 38.165C35.6001 35.95 37.7439 32.9826 38.9592 29.6037" stroke="#5B4435" stroke-width="3" stroke-linecap="round" stroke-linejoin="round"/>
</svg>
