<svg width="51" height="51" viewBox="0 0 51 51" fill="none" xmlns="http://www.w3.org/2000/svg">
<path d="M25.5138 2C19.2775 2 13.2967 4.47734 8.88702 8.88702C4.47734 13.2967 2 19.2775 2 25.5138C2 31.75 4.47734 37.7308 8.88702 42.1405C13.2967 46.5502 19.2775 49.0275 25.5138 49.0275C31.75 49.0275 37.7308 46.5502 42.1405 42.1405C46.5502 37.7308 49.0275 31.75 49.0275 25.5138C49.0275 19.2775 46.5502 13.2967 42.1405 8.88702C37.7308 4.47734 31.75 2 25.5138 2Z" stroke="#5B4435" stroke-width="3" stroke-linecap="round" stroke-linejoin="round"/>
<path d="M30.8772 16.3211C30.8778 17.1308 30.6947 17.9301 30.3417 18.6587C29.9887 19.3874 29.475 20.0265 28.8393 20.5279C32.064 20.8783 34.4714 23.4951 34.4714 26.8251C34.4714 28.6412 34.2452 29.8807 34.0806 30.5425C33.9866 30.9209 33.7425 31.2333 33.3763 31.3711C32.9173 31.5435 32.1066 31.7708 30.7506 31.9488C30.5267 34.0225 30.1717 36.4164 29.6141 38.4162C29.4551 38.9884 29.0453 39.4553 28.4776 39.6311C27.5169 39.9237 26.518 40.0717 25.5138 40.07C24.5091 40.0718 23.5098 39.9238 22.5488 39.6311C21.9811 39.4553 21.5724 38.9884 21.4123 38.4162C20.8558 36.4164 20.4997 34.0225 20.2758 31.9488C18.921 31.7708 18.1114 31.5435 17.6512 31.3711C17.2851 31.2345 17.041 30.9209 16.9458 30.5425C16.7823 29.8796 16.5562 28.6412 16.5562 26.8251C16.5562 23.4951 18.9635 20.8783 22.1883 20.5279C21.4755 19.9646 20.9175 19.2294 20.5666 18.3915C20.2157 17.5535 20.0834 16.6401 20.1822 15.737C20.2809 14.8339 20.6074 13.9707 21.1311 13.2283C21.6548 12.4859 22.3585 11.8888 23.1761 11.4928C23.9938 11.0968 24.8986 10.915 25.8057 10.9645C26.7129 11.0139 27.5926 11.293 28.3623 11.7755C29.1321 12.258 29.7667 12.9282 30.2065 13.723C30.6464 14.5179 30.8772 15.4127 30.8772 16.3211Z" stroke="#5B4435" stroke-width="3" stroke-linecap="round" stroke-linejoin="round"/>
</svg>
