<svg width="51" height="51" viewBox="0 0 51 51" fill="none" xmlns="http://www.w3.org/2000/svg">
<path d="M19.272 49.1488C17.9045 49.2916 16.5309 49.3671 15.156 49.375C13.6892 49.375 13.3443 49.2686 12.1585 49.1488C10.6245 48.992 9.47123 47.7379 9.34807 46.2006L8.51165 35.7594C7.58902 35.7168 5.64073 35.6698 4.91964 35.625C3.12588 35.5119 1.78671 33.9622 1.99274 32.1763C2.46939 28.1097 3.35584 24.1017 4.6386 20.2134C5.21077 18.4891 6.69885 17.2955 8.51053 17.1454C10.0434 17.0155 12.2268 16.9036 15.156 16.9036C18.084 16.9036 20.2685 17.0155 21.8003 17.1443C23.6097 17.2943 25.0989 18.4879 25.6711 20.2123C26.2846 22.0687 26.8074 23.9539 27.2376 25.8612" stroke="#5B4435" stroke-width="3" stroke-linecap="round" stroke-linejoin="round"/>
<path d="M31.0848 31.4599C31.3177 30.2943 31.7847 29.0122 32.1933 28.0201C32.6446 26.9228 33.5896 26.111 34.7687 25.9711C35.4042 25.8969 36.0435 25.8603 36.6834 25.8614C37.419 25.8614 38.0617 25.9073 38.598 25.9711C39.7771 26.111 40.7221 26.9228 41.1734 28.0201C41.5821 29.0122 42.049 30.2931 42.2819 31.4599" stroke="#5B4435" stroke-width="3" stroke-linecap="round" stroke-linejoin="round"/>
<path d="M22.433 9.62548C22.433 11.5557 21.6662 13.407 20.3013 14.7719C18.9364 16.1368 17.0852 16.9035 15.1549 16.9035C13.2246 16.9035 11.3734 16.1368 10.0085 14.7719C8.64362 13.407 7.87683 11.5557 7.87683 9.62548C7.87683 7.69522 8.64362 5.84401 10.0085 4.47911C11.3734 3.11421 13.2246 2.34741 15.1549 2.34741C17.0852 2.34741 18.9364 3.11421 20.3013 4.47911C21.6662 5.84401 22.433 7.69522 22.433 9.62548Z" stroke="#5B4435" stroke-width="3" stroke-linecap="round" stroke-linejoin="round"/>
<path d="M24.2464 34.5271C24.4021 32.8979 25.571 31.6315 27.1968 31.4356C29.0175 31.215 31.922 31 36.3168 31C40.7105 31 43.6173 31.215 45.4368 31.4356C47.0626 31.6315 48.2316 32.8979 48.3872 34.5271C48.516 35.8897 48.6336 37.735 48.6336 39.9576C48.6336 42.1802 48.516 44.0255 48.3872 45.3882C48.2316 47.0174 47.0626 48.2837 45.4368 48.4797C43.6162 48.7003 40.7117 48.9152 36.3168 48.9152C31.9231 48.9152 29.0164 48.6991 27.1968 48.4797C25.571 48.2837 24.4021 47.0174 24.2464 45.3882C24.079 43.5829 23.9968 41.7707 24.0001 39.9576C24.0001 37.735 24.1177 35.8897 24.2464 34.5271Z" stroke="#5B4435" stroke-width="3" stroke-linecap="round" stroke-linejoin="round"/>
</svg>
