<svg width="63" height="50" viewBox="0 0 63 50" fill="none" xmlns="http://www.w3.org/2000/svg">
<path d="M60.7982 3.62221e-06C62.0928 3.73539e-06 63 0.975006 63 2.06876C63 2.84688 62.5433 3.68125 61.4345 4.26563C55.8023 7.225 49.2818 17.4719 49.2818 23.7906C58.7822 23.5031 62.9087 31.8594 62.9087 37.0969C62.9087 43.3656 57.4339 50 49.3384 50C39.1293 50 34.1239 42.0406 34.124 33.4156C34.124 14.725 55.6511 3.17223e-06 60.7982 3.62221e-06ZM26.6742 6.38995e-07C27.9657 7.51902e-07 28.8761 0.975003 28.8761 2.06875C28.8761 2.84688 28.4193 3.68125 27.3105 4.26563C21.6783 7.225 15.1578 17.4719 15.1578 23.7906C24.6551 23.5031 28.7847 31.8594 28.7847 37.0969C28.7847 43.3656 23.3069 50 15.2145 50C5.00535 50 6.95831e-07 42.0406 1.44985e-06 33.4156C3.08384e-06 14.725 21.524 1.88746e-07 26.6742 6.38995e-07Z" fill="#FEFAE0"/>
</svg>
