<svg width="392" height="1283" viewBox="0 0 392 1283" fill="none" xmlns="http://www.w3.org/2000/svg">
<path d="M328.556 1283L307.342 1256.27C286.921 1229.54 243.304 1176.08 243.898 1122.62C243.304 1069.17 286.921 1015.71 296.834 962.25C306.747 908.792 286.921 855.333 233.39 801.875C179.86 748.417 96.5897 694.958 95.9949 641.5C96.5897 588.042 179.86 534.583 159.439 481.125C138.225 427.667 11.337 374.208 0.829111 320.75C-10.4718 267.292 96.5897 213.833 148.733 160.375C201.668 106.917 201.669 53.4584 201.669 26.7292L201.669 -8.81521e-06L392 -1.71349e-05L392 26.7292C392 53.4584 392 106.917 392 160.375C392 213.833 392 267.292 392 320.75C392 374.208 392 427.667 392 481.125C392 534.583 392 588.042 392 641.5C392 694.958 392 748.417 392 801.875C392 855.333 392 908.792 392 962.25C392 1015.71 392 1069.17 392 1122.62C392 1176.08 392 1229.54 392 1256.27L392 1283L328.556 1283Z" fill="#B65515"/>
</svg>
